<svg width="26" height="40" viewBox="0 0 26 40" fill="none" xmlns="http://www.w3.org/2000/svg">
<path d="M19.9149 2.0257C20.8 2.51844 21.2426 2.79218 21.7404 2.79218C22.4596 2.79218 22.6255 2.1352 22.6255 0.437989H23.8979C23.8979 2.51844 23.8979 5.09162 23.8979 12.5374H22.6809C22.2936 7.06257 19.3064 1.25922 13.5532 1.25922C10.1234 1.25922 7.63404 3.28492 7.63404 6.67933C7.63404 10.9497 10.8979 12.7017 16.9277 16.6983C22.017 20.038 26 22.9397 26 28.6883C26 35.6961 19.9149 39.0358 12.6681 39.0358C8.18723 39.0358 5.91915 38.0503 4.0383 37.0648C3.15319 36.5721 2.6 36.2983 2.21277 36.2983C1.10638 36.2983 1.21702 37.3933 1.21702 38.9263H0C0 36.4078 0 32.7397 0 24.2536H1.27234C1.71489 31.3162 4.20426 37.6123 11.0638 37.6123C14.8255 37.6123 17.7021 35.6413 17.7021 31.6447C17.7021 27.2648 14.383 24.7464 9.68085 21.7352C4.53617 18.6145 0.0553191 15.6034 0.0553191 9.6905C0.0553191 3.01117 5.80851 0 12.1149 0C16.3191 0 18.2553 1.04022 19.9149 2.0257Z" fill="white"/>
</svg>
