<svg width="15" height="25" viewBox="0 0 15 25" fill="none" xmlns="http://www.w3.org/2000/svg">
<path d="M5.3792 6.27042C5.38182 6.53209 5.48693 6.7823 5.67197 6.96734C5.85701 7.15238 6.10722 7.25749 6.36889 7.26011L8.63105 7.26011C8.89272 7.25749 9.14293 7.15238 9.32797 6.96734C9.51301 6.7823 9.61812 6.53209 9.62074 6.27042L9.62074 0.940226C10.7617 1.37028 11.7446 2.13786 12.4382 3.14065C13.1319 4.14345 13.5035 5.33384 13.5035 6.55319C13.5035 7.77253 13.1319 8.96293 12.4382 9.96572C11.7446 10.9685 10.7617 11.7361 9.62074 12.1661L9.62074 21.9358C9.62074 22.4983 9.3973 23.0377 8.99958 23.4354C8.60186 23.8331 8.06243 24.0566 7.49997 24.0566C6.93751 24.0566 6.39808 23.8331 6.00036 23.4354C5.60264 23.0377 5.3792 22.4983 5.3792 21.9358L5.3792 12.1661C4.23821 11.7361 3.25538 10.9685 2.56169 9.96572C1.868 8.96292 1.49639 7.77253 1.49639 6.55319C1.49639 5.33384 1.868 4.14345 2.56169 3.14065C3.25538 2.13786 4.23821 1.37028 5.3792 0.940225L5.3792 6.25628L5.3792 6.27042Z" stroke="black" stroke-width="1.5" stroke-linecap="round" stroke-linejoin="round"/>
</svg>
