<svg width="363" height="472" viewBox="0 0 363 472" fill="none" xmlns="http://www.w3.org/2000/svg">
<g clip-path="url(#clip0_4512_3120)">
<path d="M15.3008 264.873H102.203C105.748 304.452 137.768 331.35 184.025 331.35C230.283 331.35 257.724 311.56 257.724 281.625C257.724 244.081 215.543 236.973 167.779 229.866C103.739 220.723 25.9938 205.003 25.9938 121.274C25.9642 48.2204 88.4975 0 181.987 0C267.885 0 329.887 51.7596 336.504 129.915H249.099C247.563 93.875 219.117 69.5436 177.438 69.5436C140.338 69.5436 115.437 87.2982 115.437 114.195C115.437 145.664 154.575 153.273 200.301 159.88C266.881 169.524 347.699 185.745 347.699 272.011C347.699 349.134 281.119 400.893 182.017 400.893C88.4975 400.893 21.9174 346.597 15.3303 264.903L15.3008 264.873Z" fill="#FFDD2E"/>
<path d="M363 446.518H0V472H363V446.518Z" fill="#FFDD2E"/>
</g>
<defs>
<clipPath id="clip0_4512_3120">
<rect width="363" height="472" fill="white"/>
</clipPath>
</defs>
</svg>
